<?xml version="1.0" encoding="UTF-8"?>
<svg width="68px" height="68px" viewBox="0 0 68 68" version="1.1" xmlns="http://www.w3.org/2000/svg" xmlns:xlink="http://www.w3.org/1999/xlink">
    <!-- Generator: Sketch 48.2 (47327) - http://www.bohemiancoding.com/sketch -->
    <title>LAGD Logo</title>
    <desc>Created with Sketch.</desc>
    <defs></defs>
    <g id="Grayscale" stroke="none" stroke-width="1" fill="none" fill-rule="evenodd" transform="translate(-408.000000, -251.000000)">
        <g id="LAGD-Logo" transform="translate(415.000000, 258.000000)">
            <circle id="Oval" stroke="#111111" stroke-width="12.5" fill="#111111" cx="27" cy="27" r="27"></circle>
            <g id="Logo-(Light)" transform="translate(4.000000, 3.000000)">
                <g id="Logo">
                    <g id="OutPlug" transform="translate(42.691014, 30.136010) rotate(210.000000) translate(-42.691014, -30.136010) translate(41.168510, 27.883420)" fill="#FFFFFF">
                        <path d="M0.876586059,0.0412252705 L2.04138722,0.0412252705 C2.28376296,0.0412252705 2.48024733,0.237709636 2.48024733,0.480085384 L2.48024733,1.4805375 L0.437725946,1.4805375 L0.437725946,0.480085384 C0.437725946,0.237709636 0.634210311,0.0412252705 0.876586059,0.0412252705 Z" id="Rectangle-2"></path>
                        <rect id="Rectangle-2" x="-1.13686838e-13" y="1.32668269" width="3.00370792" height="3.1000571" rx="0.467336727"></rect>
                    </g>
                    <path d="M43.8653894,27.7795712 C45.4912713,24.9153464 42.9363259,18.4657029 35.6052501,18.4657029 C31.0052479,18.4657029 27.9444156,21.7157862 27.9444156,25.2112374 M29.19043,36.3198318 C29.19043,37.054544 30.1886873,38.8949756 30.1886873,39.9519247 C30.1886873,43.1537902 21.8336789,37.7688706 23.4921404,39.9519247 C25.1988534,41.8801572 25.7906061,44.5550672 24.1745221,44.5505377 C21.2725706,44.5424041 21.3076468,47 20.0340171,47 C18.7603874,47 19.2375223,44.5505377 16.5335783,44.5505377 C14.9497678,44.5505377 15.2621714,42.9456397 17.4707892,39.7358436 C17.5526037,39.616923 17.5226281,39.4541289 17.4038278,39.3722267 C17.3022372,39.3021892 17.1655444,39.3128426 17.0760087,39.3977761 L16.4083151,40.0311495 C14.8844562,41.4766797 12.4905899,41.4544769 10.9937532,39.9809301 C8.49769602,37.5089682 10.4991159,34.7139938 11.838974,34.7139938 C13.178832,34.7139938 12.1139917,36.5670782 13.6383692,37.3653183 C15.1627468,38.1635584 16.4261502,36.0876989 16.7003357,35.4667196 C16.9745213,34.8457403 16.0080574,35.2955493 15.7548385,33.8334952 C15.5016197,32.3714411 16.7003357,32.312469 16.5335783,31.7525366 C16.3668208,31.1926042 13.3356809,26.1662168 8.65854505,26.9496383 C3.98140916,27.7330598 7.07097287,32.9824826 5.5926151,33.4869208 C4.11425732,33.9913589 1.49475737,31.7946872 0.323020474,28.1706629 C-0.841492706,24.5689806 1.02542758,17.9028667 7.84222615,18.7865407 C14.6590247,19.6702148 15.9456701,26.0268007 16.9601603,26.9496383 C17.9746505,27.8724758 14.058052,22.7228519 14.058052,16.3990785 C14.058052,10.0753052 19.3760884,3.59231941e-15 20.0340171,0 C20.4297875,-1.98544482e-15 26.0144509,9.35328249 26.0144509,16.3990785 C26.0144509,21.4108365 24.5062447,20.8771259 24.5062447,24.1092762" id="Cable" stroke="#FFFFFF" stroke-width="1.8134715"></path>
                    <g id="Controller" transform="translate(18.270049, 24.961140)">
                        <path d="M10.4571505,1.1628345 L9.76024688,1.1628345 L5.33312503,1.1628345 C2.44361655,1.28753491 0,3.75628958 0,6.54774919 C0,8.96198998 1.837356,11.5681741 4.57665773,11.602118 C5.01209386,11.602118 5.57661046,11.3929605 6.29145846,11.1340999 C6.80042689,10.9454724 7.37883053,10.7371211 7.96133335,10.5816265 C9.47025242,10.1877996 11.4473154,10.1877996 12.9497928,10.5816265 C13.5600698,10.7434209 14.1940216,10.96519 14.7552755,11.1609316 C15.5567084,11.4434719 16.0240157,11.602118 16.337729,11.602118 C19.0770734,11.5587105 20.9143854,8.95188771 20.9143854,6.54774919 C20.9143854,3.70173732 18.5786875,1.28749652 15.6931528,1.1628345 L10.4571505,1.1628345 Z" id="Outline" stroke="#FFFFFF" stroke-width="1.8134715"></path>
                        <g id="ABXY" transform="translate(10.694365, 3.792755)" fill="#FFFFFF">
                            <path d="M4.99845048,1.25601495 C4.99845048,0.610316832 4.45416088,0.0846477061 3.78559057,0.0846477061 C3.11618839,0.0846477061 2.57191958,0.610316832 2.57191958,1.25601495 C2.57191958,1.90171306 3.11620918,2.42738219 3.7847795,2.42738219 C4.45418168,2.42816752 4.99845048,1.90249638 4.99845048,1.25601495 Z" id="Fill-5"></path>
                            <path d="M7.01292378,1.08867715 C6.34412992,1.08867715 5.79965832,1.61434647 5.79965832,2.26004482 C5.79965832,2.90574318 6.34412992,3.4314125 7.01292378,3.4314125 C7.68171763,3.4314125 8.22618923,2.90574318 8.22618923,2.26004482 C8.22618923,1.61434647 7.68171763,1.08867715 7.01292378,1.08867715 Z" id="Fill-6"></path>
                            <path d="M1.25074083,2.19408821 C0.581946976,2.19408821 0.0374753808,2.71975753 0.0374753808,3.36545588 C0.0374753808,4.01115424 0.581946976,4.53682356 1.25074083,4.53682356 C1.91953469,4.53682356 2.46400629,4.01115424 2.46400629,3.36545588 C2.46400629,2.71975753 1.91953469,2.19408821 1.25074083,2.19408821 Z" id="Fill-7"></path>
                            <path d="M4.47847958,3.19811764 C3.80968572,3.19811764 3.26521412,3.72378697 3.26521412,4.36948532 C3.26521412,5.01518368 3.80968572,5.540853 4.47847958,5.540853 C5.14727343,5.540853 5.69174503,5.01518368 5.69174503,4.36948532 C5.69174503,3.72378697 5.14727343,3.19811764 4.47847958,3.19811764 Z" id="Fill-8"></path>
                        </g>
                        <path d="M5.81203204,5.62206406 L7.26633635,5.62206406 C7.52443929,5.62206406 7.73367307,5.83129784 7.73367307,6.08940078 L7.73367307,6.40518779 C7.73367307,6.66329074 7.52443929,6.87252452 7.26633635,6.87252452 L5.81203204,6.87252452 L5.81203204,8.34581057 C5.81203204,8.60391352 5.60279826,8.8131473 5.34469531,8.8131473 L5.06687179,8.8131473 C4.80876884,8.8131473 4.59953506,8.60391352 4.59953506,8.34581057 L4.59953506,6.87252452 L3.06930378,6.87252452 C2.81120083,6.87252452 2.60196705,6.66329074 2.60196705,6.40518779 L2.60196705,6.08940078 C2.60196705,5.83129784 2.81120083,5.62206406 3.06930378,5.62206406 L4.59953506,5.62206406 L4.59953506,4.148778 C4.59953506,3.89067506 4.80876884,3.68144128 5.06687179,3.68144128 L5.34469531,3.68144128 C5.60279826,3.68144128 5.81203204,3.89067506 5.81203204,4.148778 L5.81203204,5.62206406 Z" id="DPad" fill="#FFFFFF"></path>
                        <path d="M12.8259491,3.36649845 C12.8259491,3.13246005 12.6699756,2.94123831 12.4790641,2.94123831 L8.31977221,2.94223518 C8.12886695,2.94223518 7.97288726,3.13344927 7.97288726,3.36749532 C7.97288726,3.60153372 8.12886071,3.79275546 8.31977221,3.79275546 L12.4790641,3.79275546 C12.6699694,3.79175859 12.8259491,3.6005445 12.8259491,3.366501 L12.8259491,3.36649845 Z" id="Deco" fill="#FFFFFF"></path>
                        <rect id="WireCap" stroke="#FFFFFF" stroke-width="0.870466356" fill="#FFFFFF" x="5.51899536" y="0" width="1.50213818" height="1.34256145" rx="0.0997409326"></rect>
                    </g>
                </g>
            </g>
        </g>
    </g>
</svg>