<?xml version="1.0" encoding="UTF-8"?>
<svg width="343px" height="279px" viewBox="0 0 343 279" version="1.1" xmlns="http://www.w3.org/2000/svg" xmlns:xlink="http://www.w3.org/1999/xlink">
    <!-- Generator: Sketch 48.2 (47327) - http://www.bohemiancoding.com/sketch -->
    <title>Bubble</title>
    <desc>Created with Sketch.</desc>
    <defs></defs>
    <g id="Grayscale" stroke="none" stroke-width="1" fill="none" fill-rule="evenodd" transform="translate(-269.000000, -396.000000)">
        <g id="Speech-Bubble" transform="translate(269.000000, 396.000000)" fill="#111111">
            <g id="Bubble">
                <path d="M73.1382542,51.1894164 C34.5758483,56.2975884 10.5147938,75.6160514 8.52387449,104.264186 C6.53295523,132.912322 25.0335173,157.299069 8.52387449,195.328534 C-14.8505859,249.170898 14.9938626,285.354566 87.4863281,277.282227 C159.978794,269.209887 146.714844,258.414063 208.273438,272.226563 C269.832031,286.039062 245.97056,226.89899 295.974609,253.004883 C316.215124,263.571961 340.410621,216.918616 343,164.238281 C345.673762,109.841206 326.250798,49.5581018 316.253906,74.0195312 C306.634766,97.5566406 289.578125,45.2929688 243.277344,63.6835938 C206.770987,78.1838831 203.472141,37.1834155 167.574219,40.6523438 C130.505859,44.234375 111.70066,46.0812445 73.1382542,51.1894164 Z" id="Path-15"></path>
                <path d="M80.4521484,52.3291016 C80.4521484,49.7495117 88.0267973,51.9439863 108.639648,45.4501953 C115.53449,43.2780717 117.588693,35.3805536 113.841797,30.3576613 C110.673792,26.1108002 103.564927,24.1092494 98.3803233,24.9894931 C86.8061618,26.7610877 89.4887695,20.2387695 85.2441406,12.3657227 C82.414388,7.11702474 77.8474935,4.58227539 71.543457,4.76147461 C65.9532878,5.5871582 61.1754557,7.29459635 57.2099609,9.88378906 C51.2617187,13.7675781 42.5507813,11.0028899 42.5507812,9.88378906 C42.5507812,8.64866308 49.5641591,11.4363487 53.8720703,8.58789062 C57.4188576,6.24269948 58.8618658,3.91760305 63.1582031,2.203125 C72.6728516,-1.59375 85.4460898,2.11872079 88.1826172,6 C90.9191446,9.88127921 93.3303896,18.8676287 98.6491992,18.6003412 C103.968009,18.3330538 109.995117,15.4069913 118.536133,20.1982422 C127.077148,24.9894931 121.651658,27.5007405 131.115712,36.0058072 C141.625,45.4501953 176.600586,38.9589844 186.916992,44.3564453 C197.233398,49.7539062 76.7490234,60.5131836 80.4521484,52.3291016 Z" id="Path-17"></path>
            </g>
        </g>
    </g>
</svg>